<svg width="135" height="115" viewBox="0 0 135 115" fill="none" xmlns="http://www.w3.org/2000/svg">
<g opacity="0.3">
<mask id="mask0_23_4" style="mask-type:alpha" maskUnits="userSpaceOnUse" x="0" y="0" width="12" height="11">
<path d="M5.75024 10.425C8.704 10.425 11.0985 8.09121 11.0985 5.21245C11.0985 2.33368 8.704 0 5.75024 0C2.79647 0 0.401978 2.33368 0.401978 5.21245C0.401978 8.09121 2.79647 10.425 5.75024 10.425Z" fill="url(#paint0_linear_23_4)"/>
</mask>
<g mask="url(#mask0_23_4)">
<path d="M5.75024 10.425C8.704 10.425 11.0985 8.09121 11.0985 5.21245C11.0985 2.33368 8.704 0 5.75024 0C2.79647 0 0.401978 2.33368 0.401978 5.21245C0.401978 8.09121 2.79647 10.425 5.75024 10.425Z" fill="url(#paint1_linear_23_4)"/>
</g>
<mask id="mask1_23_4" style="mask-type:alpha" maskUnits="userSpaceOnUse" x="31" y="0" width="12" height="11">
<path d="M36.7256 10.425C39.6794 10.425 42.0739 8.09121 42.0739 5.21245C42.0739 2.33368 39.6794 0 36.7256 0C33.7718 0 31.3773 2.33368 31.3773 5.21245C31.3773 8.09121 33.7718 10.425 36.7256 10.425Z" fill="url(#paint2_linear_23_4)"/>
</mask>
<g mask="url(#mask1_23_4)">
<path d="M36.7256 10.425C39.6794 10.425 42.0739 8.09121 42.0739 5.21245C42.0739 2.33368 39.6794 0 36.7256 0C33.7718 0 31.3773 2.33368 31.3773 5.21245C31.3773 8.09121 33.7718 10.425 36.7256 10.425Z" fill="url(#paint3_linear_23_4)"/>
</g>
<mask id="mask2_23_4" style="mask-type:alpha" maskUnits="userSpaceOnUse" x="62" y="0" width="12" height="11">
<path d="M67.7009 10.425C70.6547 10.425 73.0492 8.09121 73.0492 5.21245C73.0492 2.33368 70.6547 0 67.7009 0C64.7472 0 62.3527 2.33368 62.3527 5.21245C62.3527 8.09121 64.7472 10.425 67.7009 10.425Z" fill="url(#paint4_linear_23_4)"/>
</mask>
<g mask="url(#mask2_23_4)">
<path d="M67.7009 10.425C70.6547 10.425 73.0492 8.09121 73.0492 5.21245C73.0492 2.33368 70.6547 0 67.7009 0C64.7472 0 62.3527 2.33368 62.3527 5.21245C62.3527 8.09121 64.7472 10.425 67.7009 10.425Z" fill="url(#paint5_linear_23_4)"/>
</g>
<mask id="mask3_23_4" style="mask-type:alpha" maskUnits="userSpaceOnUse" x="93" y="0" width="12" height="11">
<path d="M98.6764 10.425C101.63 10.425 104.025 8.09121 104.025 5.21245C104.025 2.33368 101.63 0 98.6764 0C95.7226 0 93.3281 2.33368 93.3281 5.21245C93.3281 8.09121 95.7226 10.425 98.6764 10.425Z" fill="url(#paint6_linear_23_4)"/>
</mask>
<g mask="url(#mask3_23_4)">
<path d="M98.6764 10.425C101.63 10.425 104.025 8.09121 104.025 5.21245C104.025 2.33368 101.63 0 98.6764 0C95.7226 0 93.3281 2.33368 93.3281 5.21245C93.3281 8.09121 95.7226 10.425 98.6764 10.425Z" fill="url(#paint7_linear_23_4)"/>
</g>
<mask id="mask4_23_4" style="mask-type:alpha" maskUnits="userSpaceOnUse" x="124" y="0" width="11" height="11">
<path d="M129.652 10.425C132.605 10.425 135 8.09121 135 5.21245C135 2.33368 132.605 0 129.652 0C126.698 0 124.303 2.33368 124.303 5.21245C124.303 8.09121 126.698 10.425 129.652 10.425Z" fill="url(#paint8_linear_23_4)"/>
</mask>
<g mask="url(#mask4_23_4)">
<path d="M129.652 10.425C132.605 10.425 135 8.09121 135 5.21245C135 2.33368 132.605 0 129.652 0C126.698 0 124.303 2.33368 124.303 5.21245C124.303 8.09121 126.698 10.425 129.652 10.425Z" fill="url(#paint9_linear_23_4)"/>
</g>
<mask id="mask5_23_4" style="mask-type:alpha" maskUnits="userSpaceOnUse" x="0" y="26" width="12" height="11">
<path d="M5.75024 36.5958C8.704 36.5958 11.0985 34.2621 11.0985 31.3833C11.0985 28.5046 8.704 26.1709 5.75024 26.1709C2.79647 26.1709 0.401978 28.5046 0.401978 31.3833C0.401978 34.2621 2.79647 36.5958 5.75024 36.5958Z" fill="url(#paint10_linear_23_4)"/>
</mask>
<g mask="url(#mask5_23_4)">
<path d="M5.75024 36.5958C8.704 36.5958 11.0985 34.2621 11.0985 31.3833C11.0985 28.5046 8.704 26.1709 5.75024 26.1709C2.79647 26.1709 0.401978 28.5046 0.401978 31.3833C0.401978 34.2621 2.79647 36.5958 5.75024 36.5958Z" fill="url(#paint11_linear_23_4)"/>
</g>
<mask id="mask6_23_4" style="mask-type:alpha" maskUnits="userSpaceOnUse" x="31" y="26" width="12" height="11">
<path d="M36.7256 36.5958C39.6794 36.5958 42.0739 34.2621 42.0739 31.3833C42.0739 28.5046 39.6794 26.1709 36.7256 26.1709C33.7718 26.1709 31.3773 28.5046 31.3773 31.3833C31.3773 34.2621 33.7718 36.5958 36.7256 36.5958Z" fill="url(#paint12_linear_23_4)"/>
</mask>
<g mask="url(#mask6_23_4)">
<path d="M36.7256 36.5958C39.6794 36.5958 42.0739 34.2621 42.0739 31.3833C42.0739 28.5046 39.6794 26.1709 36.7256 26.1709C33.7718 26.1709 31.3773 28.5046 31.3773 31.3833C31.3773 34.2621 33.7718 36.5958 36.7256 36.5958Z" fill="url(#paint13_linear_23_4)"/>
</g>
<mask id="mask7_23_4" style="mask-type:alpha" maskUnits="userSpaceOnUse" x="62" y="26" width="12" height="11">
<path d="M67.7009 36.5958C70.6547 36.5958 73.0492 34.2621 73.0492 31.3833C73.0492 28.5046 70.6547 26.1709 67.7009 26.1709C64.7472 26.1709 62.3527 28.5046 62.3527 31.3833C62.3527 34.2621 64.7472 36.5958 67.7009 36.5958Z" fill="url(#paint14_linear_23_4)"/>
</mask>
<g mask="url(#mask7_23_4)">
<path d="M67.7009 36.5958C70.6547 36.5958 73.0492 34.2621 73.0492 31.3833C73.0492 28.5046 70.6547 26.1709 67.7009 26.1709C64.7472 26.1709 62.3527 28.5046 62.3527 31.3833C62.3527 34.2621 64.7472 36.5958 67.7009 36.5958Z" fill="url(#paint15_linear_23_4)"/>
</g>
<mask id="mask8_23_4" style="mask-type:alpha" maskUnits="userSpaceOnUse" x="93" y="26" width="12" height="11">
<path d="M98.6764 36.5958C101.63 36.5958 104.025 34.2621 104.025 31.3833C104.025 28.5046 101.63 26.1709 98.6764 26.1709C95.7226 26.1709 93.3281 28.5046 93.3281 31.3833C93.3281 34.2621 95.7226 36.5958 98.6764 36.5958Z" fill="url(#paint16_linear_23_4)"/>
</mask>
<g mask="url(#mask8_23_4)">
<path d="M98.6764 36.5958C101.63 36.5958 104.025 34.2621 104.025 31.3833C104.025 28.5046 101.63 26.1709 98.6764 26.1709C95.7226 26.1709 93.3281 28.5046 93.3281 31.3833C93.3281 34.2621 95.7226 36.5958 98.6764 36.5958Z" fill="url(#paint17_linear_23_4)"/>
</g>
<mask id="mask9_23_4" style="mask-type:alpha" maskUnits="userSpaceOnUse" x="124" y="26" width="11" height="11">
<path d="M129.652 36.5958C132.605 36.5958 135 34.2621 135 31.3833C135 28.5046 132.605 26.1709 129.652 26.1709C126.698 26.1709 124.303 28.5046 124.303 31.3833C124.303 34.2621 126.698 36.5958 129.652 36.5958Z" fill="url(#paint18_linear_23_4)"/>
</mask>
<g mask="url(#mask9_23_4)">
<path d="M129.652 36.5958C132.605 36.5958 135 34.2621 135 31.3833C135 28.5046 132.605 26.1709 129.652 26.1709C126.698 26.1709 124.303 28.5046 124.303 31.3833C124.303 34.2621 126.698 36.5958 129.652 36.5958Z" fill="url(#paint19_linear_23_4)"/>
</g>
<mask id="mask10_23_4" style="mask-type:alpha" maskUnits="userSpaceOnUse" x="0" y="52" width="12" height="11">
<path d="M5.75024 62.7126C8.704 62.7126 11.0985 60.3789 11.0985 57.5001C11.0985 54.6213 8.704 52.2876 5.75024 52.2876C2.79647 52.2876 0.401978 54.6213 0.401978 57.5001C0.401978 60.3789 2.79647 62.7126 5.75024 62.7126Z" fill="url(#paint20_linear_23_4)"/>
</mask>
<g mask="url(#mask10_23_4)">
<path d="M5.75024 62.7126C8.704 62.7126 11.0985 60.3789 11.0985 57.5001C11.0985 54.6213 8.704 52.2876 5.75024 52.2876C2.79647 52.2876 0.401978 54.6213 0.401978 57.5001C0.401978 60.3789 2.79647 62.7126 5.75024 62.7126Z" fill="url(#paint21_linear_23_4)"/>
</g>
<mask id="mask11_23_4" style="mask-type:alpha" maskUnits="userSpaceOnUse" x="31" y="52" width="12" height="11">
<path d="M36.7256 62.7126C39.6794 62.7126 42.0739 60.3789 42.0739 57.5001C42.0739 54.6213 39.6794 52.2876 36.7256 52.2876C33.7718 52.2876 31.3773 54.6213 31.3773 57.5001C31.3773 60.3789 33.7718 62.7126 36.7256 62.7126Z" fill="url(#paint22_linear_23_4)"/>
</mask>
<g mask="url(#mask11_23_4)">
<path d="M36.7256 62.7126C39.6794 62.7126 42.0739 60.3789 42.0739 57.5001C42.0739 54.6213 39.6794 52.2876 36.7256 52.2876C33.7718 52.2876 31.3773 54.6213 31.3773 57.5001C31.3773 60.3789 33.7718 62.7126 36.7256 62.7126Z" fill="url(#paint23_linear_23_4)"/>
</g>
<mask id="mask12_23_4" style="mask-type:alpha" maskUnits="userSpaceOnUse" x="62" y="52" width="12" height="11">
<path d="M67.7009 62.7126C70.6547 62.7126 73.0492 60.3789 73.0492 57.5001C73.0492 54.6213 70.6547 52.2876 67.7009 52.2876C64.7472 52.2876 62.3527 54.6213 62.3527 57.5001C62.3527 60.3789 64.7472 62.7126 67.7009 62.7126Z" fill="url(#paint24_linear_23_4)"/>
</mask>
<g mask="url(#mask12_23_4)">
<path d="M67.7009 62.7126C70.6547 62.7126 73.0492 60.3789 73.0492 57.5001C73.0492 54.6213 70.6547 52.2876 67.7009 52.2876C64.7472 52.2876 62.3527 54.6213 62.3527 57.5001C62.3527 60.3789 64.7472 62.7126 67.7009 62.7126Z" fill="url(#paint25_linear_23_4)"/>
</g>
<mask id="mask13_23_4" style="mask-type:alpha" maskUnits="userSpaceOnUse" x="93" y="52" width="12" height="11">
<path d="M98.6764 62.7126C101.63 62.7126 104.025 60.3789 104.025 57.5001C104.025 54.6213 101.63 52.2876 98.6764 52.2876C95.7226 52.2876 93.3281 54.6213 93.3281 57.5001C93.3281 60.3789 95.7226 62.7126 98.6764 62.7126Z" fill="url(#paint26_linear_23_4)"/>
</mask>
<g mask="url(#mask13_23_4)">
<path d="M98.6764 62.7126C101.63 62.7126 104.025 60.3789 104.025 57.5001C104.025 54.6213 101.63 52.2876 98.6764 52.2876C95.7226 52.2876 93.3281 54.6213 93.3281 57.5001C93.3281 60.3789 95.7226 62.7126 98.6764 62.7126Z" fill="url(#paint27_linear_23_4)"/>
</g>
<mask id="mask14_23_4" style="mask-type:alpha" maskUnits="userSpaceOnUse" x="124" y="52" width="11" height="11">
<path d="M129.652 62.7126C132.605 62.7126 135 60.3789 135 57.5001C135 54.6213 132.605 52.2876 129.652 52.2876C126.698 52.2876 124.303 54.6213 124.303 57.5001C124.303 60.3789 126.698 62.7126 129.652 62.7126Z" fill="url(#paint28_linear_23_4)"/>
</mask>
<g mask="url(#mask14_23_4)">
<path d="M129.652 62.7126C132.605 62.7126 135 60.3789 135 57.5001C135 54.6213 132.605 52.2876 129.652 52.2876C126.698 52.2876 124.303 54.6213 124.303 57.5001C124.303 60.3789 126.698 62.7126 129.652 62.7126Z" fill="url(#paint29_linear_23_4)"/>
</g>
<mask id="mask15_23_4" style="mask-type:alpha" maskUnits="userSpaceOnUse" x="0" y="78" width="12" height="11">
<path d="M5.75024 88.8835C8.704 88.8835 11.0985 86.5497 11.0985 83.6709C11.0985 80.7922 8.704 78.4585 5.75024 78.4585C2.79647 78.4585 0.401978 80.7922 0.401978 83.6709C0.401978 86.5497 2.79647 88.8835 5.75024 88.8835Z" fill="url(#paint30_linear_23_4)"/>
</mask>
<g mask="url(#mask15_23_4)">
<path d="M5.75024 88.8835C8.704 88.8835 11.0985 86.5497 11.0985 83.6709C11.0985 80.7922 8.704 78.4585 5.75024 78.4585C2.79647 78.4585 0.401978 80.7922 0.401978 83.6709C0.401978 86.5497 2.79647 88.8835 5.75024 88.8835Z" fill="url(#paint31_linear_23_4)"/>
</g>
<mask id="mask16_23_4" style="mask-type:alpha" maskUnits="userSpaceOnUse" x="31" y="78" width="12" height="11">
<path d="M36.7256 88.8835C39.6794 88.8835 42.0739 86.5497 42.0739 83.6709C42.0739 80.7922 39.6794 78.4585 36.7256 78.4585C33.7718 78.4585 31.3773 80.7922 31.3773 83.6709C31.3773 86.5497 33.7718 88.8835 36.7256 88.8835Z" fill="url(#paint32_linear_23_4)"/>
</mask>
<g mask="url(#mask16_23_4)">
<path d="M36.7256 88.8835C39.6794 88.8835 42.0739 86.5497 42.0739 83.6709C42.0739 80.7922 39.6794 78.4585 36.7256 78.4585C33.7718 78.4585 31.3773 80.7922 31.3773 83.6709C31.3773 86.5497 33.7718 88.8835 36.7256 88.8835Z" fill="url(#paint33_linear_23_4)"/>
</g>
<mask id="mask17_23_4" style="mask-type:alpha" maskUnits="userSpaceOnUse" x="62" y="78" width="12" height="11">
<path d="M67.7009 88.8835C70.6547 88.8835 73.0492 86.5497 73.0492 83.6709C73.0492 80.7922 70.6547 78.4585 67.7009 78.4585C64.7472 78.4585 62.3527 80.7922 62.3527 83.6709C62.3527 86.5497 64.7472 88.8835 67.7009 88.8835Z" fill="url(#paint34_linear_23_4)"/>
</mask>
<g mask="url(#mask17_23_4)">
<path d="M67.7009 88.8835C70.6547 88.8835 73.0492 86.5497 73.0492 83.6709C73.0492 80.7922 70.6547 78.4585 67.7009 78.4585C64.7472 78.4585 62.3527 80.7922 62.3527 83.6709C62.3527 86.5497 64.7472 88.8835 67.7009 88.8835Z" fill="url(#paint35_linear_23_4)"/>
</g>
<mask id="mask18_23_4" style="mask-type:alpha" maskUnits="userSpaceOnUse" x="93" y="78" width="12" height="11">
<path d="M98.6764 88.8835C101.63 88.8835 104.025 86.5497 104.025 83.6709C104.025 80.7922 101.63 78.4585 98.6764 78.4585C95.7226 78.4585 93.3281 80.7922 93.3281 83.6709C93.3281 86.5497 95.7226 88.8835 98.6764 88.8835Z" fill="url(#paint36_linear_23_4)"/>
</mask>
<g mask="url(#mask18_23_4)">
<path d="M98.6764 88.8835C101.63 88.8835 104.025 86.5497 104.025 83.6709C104.025 80.7922 101.63 78.4585 98.6764 78.4585C95.7226 78.4585 93.3281 80.7922 93.3281 83.6709C93.3281 86.5497 95.7226 88.8835 98.6764 88.8835Z" fill="url(#paint37_linear_23_4)"/>
</g>
<mask id="mask19_23_4" style="mask-type:alpha" maskUnits="userSpaceOnUse" x="124" y="78" width="11" height="11">
<path d="M129.652 88.8835C132.605 88.8835 135 86.5497 135 83.6709C135 80.7922 132.605 78.4585 129.652 78.4585C126.698 78.4585 124.303 80.7922 124.303 83.6709C124.303 86.5497 126.698 88.8835 129.652 88.8835Z" fill="url(#paint38_linear_23_4)"/>
</mask>
<g mask="url(#mask19_23_4)">
<path d="M129.652 88.8835C132.605 88.8835 135 86.5497 135 83.6709C135 80.7922 132.605 78.4585 129.652 78.4585C126.698 78.4585 124.303 80.7922 124.303 83.6709C124.303 86.5497 126.698 88.8835 129.652 88.8835Z" fill="url(#paint39_linear_23_4)"/>
</g>
<mask id="mask20_23_4" style="mask-type:alpha" maskUnits="userSpaceOnUse" x="0" y="104" width="12" height="11">
<path d="M5.75024 115C8.704 115 11.0985 112.666 11.0985 109.787C11.0985 106.909 8.704 104.575 5.75024 104.575C2.79647 104.575 0.401978 106.909 0.401978 109.787C0.401978 112.666 2.79647 115 5.75024 115Z" fill="url(#paint40_linear_23_4)"/>
</mask>
<g mask="url(#mask20_23_4)">
<path d="M5.75024 115C8.704 115 11.0985 112.666 11.0985 109.787C11.0985 106.909 8.704 104.575 5.75024 104.575C2.79647 104.575 0.401978 106.909 0.401978 109.787C0.401978 112.666 2.79647 115 5.75024 115Z" fill="url(#paint41_linear_23_4)"/>
</g>
<mask id="mask21_23_4" style="mask-type:alpha" maskUnits="userSpaceOnUse" x="31" y="104" width="12" height="11">
<path d="M36.7256 115C39.6794 115 42.0739 112.666 42.0739 109.787C42.0739 106.909 39.6794 104.575 36.7256 104.575C33.7718 104.575 31.3773 106.909 31.3773 109.787C31.3773 112.666 33.7718 115 36.7256 115Z" fill="url(#paint42_linear_23_4)"/>
</mask>
<g mask="url(#mask21_23_4)">
<path d="M36.7256 115C39.6794 115 42.0739 112.666 42.0739 109.787C42.0739 106.909 39.6794 104.575 36.7256 104.575C33.7718 104.575 31.3773 106.909 31.3773 109.787C31.3773 112.666 33.7718 115 36.7256 115Z" fill="url(#paint43_linear_23_4)"/>
</g>
<mask id="mask22_23_4" style="mask-type:alpha" maskUnits="userSpaceOnUse" x="62" y="104" width="12" height="11">
<path d="M67.7009 115C70.6547 115 73.0492 112.666 73.0492 109.787C73.0492 106.909 70.6547 104.575 67.7009 104.575C64.7472 104.575 62.3527 106.909 62.3527 109.787C62.3527 112.666 64.7472 115 67.7009 115Z" fill="url(#paint44_linear_23_4)"/>
</mask>
<g mask="url(#mask22_23_4)">
<path d="M67.7009 115C70.6547 115 73.0492 112.666 73.0492 109.787C73.0492 106.909 70.6547 104.575 67.7009 104.575C64.7472 104.575 62.3527 106.909 62.3527 109.787C62.3527 112.666 64.7472 115 67.7009 115Z" fill="url(#paint45_linear_23_4)"/>
</g>
<mask id="mask23_23_4" style="mask-type:alpha" maskUnits="userSpaceOnUse" x="93" y="104" width="12" height="11">
<path d="M98.6764 115C101.63 115 104.025 112.666 104.025 109.787C104.025 106.909 101.63 104.575 98.6764 104.575C95.7226 104.575 93.3281 106.909 93.3281 109.787C93.3281 112.666 95.7226 115 98.6764 115Z" fill="url(#paint46_linear_23_4)"/>
</mask>
<g mask="url(#mask23_23_4)">
<path d="M98.6764 115C101.63 115 104.025 112.666 104.025 109.787C104.025 106.909 101.63 104.575 98.6764 104.575C95.7226 104.575 93.3281 106.909 93.3281 109.787C93.3281 112.666 95.7226 115 98.6764 115Z" fill="url(#paint47_linear_23_4)"/>
</g>
<mask id="mask24_23_4" style="mask-type:alpha" maskUnits="userSpaceOnUse" x="124" y="104" width="11" height="11">
<path d="M129.652 115C132.605 115 135 112.666 135 109.787C135 106.909 132.605 104.575 129.652 104.575C126.698 104.575 124.303 106.909 124.303 109.787C124.303 112.666 126.698 115 129.652 115Z" fill="url(#paint48_linear_23_4)"/>
</mask>
<g mask="url(#mask24_23_4)">
<path d="M129.652 115C132.605 115 135 112.666 135 109.787C135 106.909 132.605 104.575 129.652 104.575C126.698 104.575 124.303 106.909 124.303 109.787C124.303 112.666 126.698 115 129.652 115Z" fill="url(#paint49_linear_23_4)"/>
</g>
</g>
<defs>
<linearGradient id="paint0_linear_23_4" x1="56.659" y1="131.134" x2="-13.5582" y2="-51.7533" gradientUnits="userSpaceOnUse">
<stop/>
<stop offset="1" stop-color="white"/>
</linearGradient>
<linearGradient id="paint1_linear_23_4" x1="56.659" y1="131.134" x2="-13.5582" y2="-51.7533" gradientUnits="userSpaceOnUse">
<stop stop-color="#97C3F9"/>
<stop offset="1" stop-color="#93C1F9"/>
</linearGradient>
<linearGradient id="paint2_linear_23_4" x1="83.4643" y1="120.843" x2="13.2472" y2="-62.0446" gradientUnits="userSpaceOnUse">
<stop/>
<stop offset="1" stop-color="white"/>
</linearGradient>
<linearGradient id="paint3_linear_23_4" x1="83.4643" y1="120.843" x2="13.2472" y2="-62.0446" gradientUnits="userSpaceOnUse">
<stop stop-color="#97C3F9"/>
<stop offset="1" stop-color="#93C1F9"/>
</linearGradient>
<linearGradient id="paint4_linear_23_4" x1="110.269" y1="110.551" x2="40.0524" y2="-72.3359" gradientUnits="userSpaceOnUse">
<stop/>
<stop offset="1" stop-color="white"/>
</linearGradient>
<linearGradient id="paint5_linear_23_4" x1="110.269" y1="110.551" x2="40.0524" y2="-72.3359" gradientUnits="userSpaceOnUse">
<stop stop-color="#97C3F9"/>
<stop offset="1" stop-color="#93C1F9"/>
</linearGradient>
<linearGradient id="paint6_linear_23_4" x1="137.075" y1="100.259" x2="66.8575" y2="-82.6278" gradientUnits="userSpaceOnUse">
<stop/>
<stop offset="1" stop-color="white"/>
</linearGradient>
<linearGradient id="paint7_linear_23_4" x1="137.075" y1="100.259" x2="66.8575" y2="-82.6278" gradientUnits="userSpaceOnUse">
<stop stop-color="#97C3F9"/>
<stop offset="1" stop-color="#93C1F9"/>
</linearGradient>
<linearGradient id="paint8_linear_23_4" x1="163.88" y1="89.9679" x2="93.6627" y2="-92.9193" gradientUnits="userSpaceOnUse">
<stop/>
<stop offset="1" stop-color="white"/>
</linearGradient>
<linearGradient id="paint9_linear_23_4" x1="163.88" y1="89.9679" x2="93.6627" y2="-92.9193" gradientUnits="userSpaceOnUse">
<stop stop-color="#97C3F9"/>
<stop offset="1" stop-color="#93C1F9"/>
</linearGradient>
<linearGradient id="paint10_linear_23_4" x1="47.5118" y1="134.645" x2="-22.7042" y2="-48.2405" gradientUnits="userSpaceOnUse">
<stop/>
<stop offset="1" stop-color="white"/>
</linearGradient>
<linearGradient id="paint11_linear_23_4" x1="47.5118" y1="134.645" x2="-22.7042" y2="-48.2405" gradientUnits="userSpaceOnUse">
<stop stop-color="#97C3F9"/>
<stop offset="1" stop-color="#93C1F9"/>
</linearGradient>
<linearGradient id="paint12_linear_23_4" x1="74.3168" y1="124.354" x2="4.10095" y2="-58.5324" gradientUnits="userSpaceOnUse">
<stop/>
<stop offset="1" stop-color="white"/>
</linearGradient>
<linearGradient id="paint13_linear_23_4" x1="74.3168" y1="124.354" x2="4.10095" y2="-58.5324" gradientUnits="userSpaceOnUse">
<stop stop-color="#97C3F9"/>
<stop offset="1" stop-color="#93C1F9"/>
</linearGradient>
<linearGradient id="paint14_linear_23_4" x1="101.122" y1="114.062" x2="30.9061" y2="-68.8237" gradientUnits="userSpaceOnUse">
<stop/>
<stop offset="1" stop-color="white"/>
</linearGradient>
<linearGradient id="paint15_linear_23_4" x1="101.122" y1="114.062" x2="30.9061" y2="-68.8237" gradientUnits="userSpaceOnUse">
<stop stop-color="#97C3F9"/>
<stop offset="1" stop-color="#93C1F9"/>
</linearGradient>
<linearGradient id="paint16_linear_23_4" x1="127.927" y1="103.771" x2="57.7113" y2="-79.1152" gradientUnits="userSpaceOnUse">
<stop/>
<stop offset="1" stop-color="white"/>
</linearGradient>
<linearGradient id="paint17_linear_23_4" x1="127.927" y1="103.771" x2="57.7113" y2="-79.1152" gradientUnits="userSpaceOnUse">
<stop stop-color="#97C3F9"/>
<stop offset="1" stop-color="#93C1F9"/>
</linearGradient>
<linearGradient id="paint18_linear_23_4" x1="154.732" y1="93.4793" x2="84.5165" y2="-89.4065" gradientUnits="userSpaceOnUse">
<stop/>
<stop offset="1" stop-color="white"/>
</linearGradient>
<linearGradient id="paint19_linear_23_4" x1="154.732" y1="93.4793" x2="84.5165" y2="-89.4065" gradientUnits="userSpaceOnUse">
<stop stop-color="#97C3F9"/>
<stop offset="1" stop-color="#93C1F9"/>
</linearGradient>
<linearGradient id="paint20_linear_23_4" x1="38.3642" y1="138.158" x2="-31.8529" y2="-44.7291" gradientUnits="userSpaceOnUse">
<stop/>
<stop offset="1" stop-color="white"/>
</linearGradient>
<linearGradient id="paint21_linear_23_4" x1="38.3642" y1="138.158" x2="-31.8529" y2="-44.7291" gradientUnits="userSpaceOnUse">
<stop stop-color="#97C3F9"/>
<stop offset="1" stop-color="#93C1F9"/>
</linearGradient>
<linearGradient id="paint22_linear_23_4" x1="65.1694" y1="127.867" x2="-5.04769" y2="-55.0207" gradientUnits="userSpaceOnUse">
<stop/>
<stop offset="1" stop-color="white"/>
</linearGradient>
<linearGradient id="paint23_linear_23_4" x1="65.1694" y1="127.867" x2="-5.04769" y2="-55.0207" gradientUnits="userSpaceOnUse">
<stop stop-color="#97C3F9"/>
<stop offset="1" stop-color="#93C1F9"/>
</linearGradient>
<linearGradient id="paint24_linear_23_4" x1="91.9746" y1="117.575" x2="21.7575" y2="-65.312" gradientUnits="userSpaceOnUse">
<stop/>
<stop offset="1" stop-color="white"/>
</linearGradient>
<linearGradient id="paint25_linear_23_4" x1="91.9746" y1="117.575" x2="21.7575" y2="-65.312" gradientUnits="userSpaceOnUse">
<stop stop-color="#97C3F9"/>
<stop offset="1" stop-color="#93C1F9"/>
</linearGradient>
<linearGradient id="paint26_linear_23_4" x1="118.78" y1="107.283" x2="48.5627" y2="-75.6037" gradientUnits="userSpaceOnUse">
<stop/>
<stop offset="1" stop-color="white"/>
</linearGradient>
<linearGradient id="paint27_linear_23_4" x1="118.78" y1="107.283" x2="48.5627" y2="-75.6037" gradientUnits="userSpaceOnUse">
<stop stop-color="#97C3F9"/>
<stop offset="1" stop-color="#93C1F9"/>
</linearGradient>
<linearGradient id="paint28_linear_23_4" x1="145.585" y1="96.992" x2="75.3678" y2="-85.8952" gradientUnits="userSpaceOnUse">
<stop/>
<stop offset="1" stop-color="white"/>
</linearGradient>
<linearGradient id="paint29_linear_23_4" x1="145.585" y1="96.992" x2="75.3678" y2="-85.8952" gradientUnits="userSpaceOnUse">
<stop stop-color="#97C3F9"/>
<stop offset="1" stop-color="#93C1F9"/>
</linearGradient>
<linearGradient id="paint30_linear_23_4" x1="29.2168" y1="141.67" x2="-41.0004" y2="-41.2171" gradientUnits="userSpaceOnUse">
<stop/>
<stop offset="1" stop-color="white"/>
</linearGradient>
<linearGradient id="paint31_linear_23_4" x1="29.2168" y1="141.67" x2="-41.0004" y2="-41.2171" gradientUnits="userSpaceOnUse">
<stop stop-color="#97C3F9"/>
<stop offset="1" stop-color="#93C1F9"/>
</linearGradient>
<linearGradient id="paint32_linear_23_4" x1="56.022" y1="131.379" x2="-14.1951" y2="-51.5086" gradientUnits="userSpaceOnUse">
<stop/>
<stop offset="1" stop-color="white"/>
</linearGradient>
<linearGradient id="paint33_linear_23_4" x1="56.022" y1="131.379" x2="-14.1951" y2="-51.5086" gradientUnits="userSpaceOnUse">
<stop stop-color="#97C3F9"/>
<stop offset="1" stop-color="#93C1F9"/>
</linearGradient>
<linearGradient id="paint34_linear_23_4" x1="82.8271" y1="121.087" x2="12.6101" y2="-61.8001" gradientUnits="userSpaceOnUse">
<stop/>
<stop offset="1" stop-color="white"/>
</linearGradient>
<linearGradient id="paint35_linear_23_4" x1="82.8271" y1="121.087" x2="12.6101" y2="-61.8001" gradientUnits="userSpaceOnUse">
<stop stop-color="#97C3F9"/>
<stop offset="1" stop-color="#93C1F9"/>
</linearGradient>
<linearGradient id="paint36_linear_23_4" x1="109.632" y1="110.796" x2="39.4153" y2="-72.0917" gradientUnits="userSpaceOnUse">
<stop/>
<stop offset="1" stop-color="white"/>
</linearGradient>
<linearGradient id="paint37_linear_23_4" x1="109.632" y1="110.796" x2="39.4153" y2="-72.0917" gradientUnits="userSpaceOnUse">
<stop stop-color="#97C3F9"/>
<stop offset="1" stop-color="#93C1F9"/>
</linearGradient>
<linearGradient id="paint38_linear_23_4" x1="136.438" y1="100.504" x2="66.2204" y2="-82.3832" gradientUnits="userSpaceOnUse">
<stop/>
<stop offset="1" stop-color="white"/>
</linearGradient>
<linearGradient id="paint39_linear_23_4" x1="136.438" y1="100.504" x2="66.2204" y2="-82.3832" gradientUnits="userSpaceOnUse">
<stop stop-color="#97C3F9"/>
<stop offset="1" stop-color="#93C1F9"/>
</linearGradient>
<linearGradient id="paint40_linear_23_4" x1="20.0694" y1="145.182" x2="-50.1477" y2="-37.7053" gradientUnits="userSpaceOnUse">
<stop/>
<stop offset="1" stop-color="white"/>
</linearGradient>
<linearGradient id="paint41_linear_23_4" x1="20.0694" y1="145.182" x2="-50.1477" y2="-37.7053" gradientUnits="userSpaceOnUse">
<stop stop-color="#97C3F9"/>
<stop offset="1" stop-color="#93C1F9"/>
</linearGradient>
<linearGradient id="paint42_linear_23_4" x1="46.8746" y1="134.89" x2="-23.3425" y2="-47.9968" gradientUnits="userSpaceOnUse">
<stop/>
<stop offset="1" stop-color="white"/>
</linearGradient>
<linearGradient id="paint43_linear_23_4" x1="46.8746" y1="134.89" x2="-23.3425" y2="-47.9968" gradientUnits="userSpaceOnUse">
<stop stop-color="#97C3F9"/>
<stop offset="1" stop-color="#93C1F9"/>
</linearGradient>
<linearGradient id="paint44_linear_23_4" x1="73.6797" y1="124.599" x2="3.46269" y2="-58.2881" gradientUnits="userSpaceOnUse">
<stop/>
<stop offset="1" stop-color="white"/>
</linearGradient>
<linearGradient id="paint45_linear_23_4" x1="73.6797" y1="124.599" x2="3.46269" y2="-58.2881" gradientUnits="userSpaceOnUse">
<stop stop-color="#97C3F9"/>
<stop offset="1" stop-color="#93C1F9"/>
</linearGradient>
<linearGradient id="paint46_linear_23_4" x1="100.485" y1="114.307" x2="30.2679" y2="-68.5798" gradientUnits="userSpaceOnUse">
<stop/>
<stop offset="1" stop-color="white"/>
</linearGradient>
<linearGradient id="paint47_linear_23_4" x1="100.485" y1="114.307" x2="30.2679" y2="-68.5798" gradientUnits="userSpaceOnUse">
<stop stop-color="#97C3F9"/>
<stop offset="1" stop-color="#93C1F9"/>
</linearGradient>
<linearGradient id="paint48_linear_23_4" x1="127.29" y1="104.016" x2="57.073" y2="-78.8713" gradientUnits="userSpaceOnUse">
<stop/>
<stop offset="1" stop-color="white"/>
</linearGradient>
<linearGradient id="paint49_linear_23_4" x1="127.29" y1="104.016" x2="57.073" y2="-78.8713" gradientUnits="userSpaceOnUse">
<stop stop-color="#97C3F9"/>
<stop offset="1" stop-color="#93C1F9"/>
</linearGradient>
</defs>
</svg>
